<?xml version="1.0" encoding="UTF-8" standalone="no"?>
<!-- Created with Inkscape (http://www.inkscape.org/) -->

<svg
   version="1.1"
   id="svg1"
   width="2666.6667"
   height="2666.6667"
   viewBox="0 0 2666.6667 2666.6667"
   sodipodi:docname="logo.svg"
   inkscape:version="1.3.1 (9b9bdc1480, 2023-11-25, custom)"
   xmlns:inkscape="http://www.inkscape.org/namespaces/inkscape"
   xmlns:sodipodi="http://sodipodi.sourceforge.net/DTD/sodipodi-0.dtd"
   xmlns="http://www.w3.org/2000/svg"
   xmlns:svg="http://www.w3.org/2000/svg">
  <defs
     id="defs1">
    <inkscape:path-effect
       effect="mirror_symmetry"
       start_point="12787.46,6583.5295"
       end_point="12787.46,4313.1295"
       center_point="12787.46,5448.3295"
       id="path-effect5"
       is_visible="true"
       lpeversion="1.2"
       lpesatellites=""
       mode="vertical"
       discard_orig_path="false"
       fuse_paths="false"
       oposite_fuse="false"
       split_items="false"
       split_open="false"
       link_styles="false" />
    <inkscape:path-effect
       effect="mirror_symmetry"
       start_point="12537.713,3077.6942"
       end_point="12537.713,5318.4893"
       center_point="12537.713,4198.0918"
       id="path-effect4"
       is_visible="true"
       lpeversion="1.2"
       lpesatellites=""
       mode="vertical"
       discard_orig_path="false"
       fuse_paths="false"
       oposite_fuse="false"
       split_items="false"
       split_open="false"
       link_styles="false" />
    <inkscape:path-effect
       effect="mirror_symmetry"
       start_point="12537.713,3077.6942"
       end_point="12537.713,5318.4893"
       center_point="12537.713,4198.0918"
       id="path-effect2"
       is_visible="true"
       lpeversion="1.2"
       lpesatellites=""
       mode="vertical"
       discard_orig_path="false"
       fuse_paths="false"
       oposite_fuse="false"
       split_items="false"
       split_open="false"
       link_styles="false" />
    <inkscape:path-effect
       effect="mirror_symmetry"
       start_point="12818.609,6586.4575"
       end_point="12818.609,4316.0575"
       center_point="12818.609,5451.2575"
       id="path-effect1"
       is_visible="true"
       lpeversion="1.2"
       lpesatellites=""
       mode="vertical"
       discard_orig_path="false"
       fuse_paths="false"
       oposite_fuse="false"
       split_items="false"
       split_open="false"
       link_styles="false" />
    <linearGradient
       x1="0"
       y1="0"
       x2="1"
       y2="0"
       gradientUnits="userSpaceOnUse"
       gradientTransform="matrix(-1197.33,-1570.9,-1570.9,1197.33,14144.7,5563.7)"
       spreadMethod="pad"
       id="linearGradient11">
      <stop
         style="stop-opacity:1;stop-color:#d51e27"
         offset="0"
         id="stop9" />
      <stop
         style="stop-opacity:1;stop-color:#161413"
         offset="0.978495"
         id="stop10" />
      <stop
         style="stop-opacity:1;stop-color:#161413"
         offset="1"
         id="stop11" />
    </linearGradient>
    <clipPath
       clipPathUnits="userSpaceOnUse"
       id="clipPath11">
      <path
         d="m 13662,4976.9 c -9.6,-0.7 -18.7,-1.3 -27.6,-2.7 -23.2,-3.5 -40.2,-11.9 -50.6,-24.8 -8.3,-10.3 -13.3,-24.9 -14.4,-41.2 24.9,9.5 49.9,15.2 74.5,17.1 12.3,0.9 23.3,0.8 33,0.7 20,-0.2 35.9,-0.4 56.3,7.6 18,7 34.8,18.5 49.9,34.3 -2.2,10.1 -5.2,19.9 -8.8,29.3 l -72.9,-15.7 c -13.3,-2.8 -26.5,-3.7 -39.4,-4.6 z"
         transform="translate(0,2.5000001e-4)"
         id="path11" />
    </clipPath>
    <linearGradient
       x1="0"
       y1="0"
       x2="1"
       y2="0"
       gradientUnits="userSpaceOnUse"
       gradientTransform="matrix(-1197.33,-1570.9,-1570.9,1197.33,13289.7,6215.4)"
       spreadMethod="pad"
       id="linearGradient14">
      <stop
         style="stop-opacity:1;stop-color:#d51e27"
         offset="0"
         id="stop12" />
      <stop
         style="stop-opacity:1;stop-color:#161413"
         offset="0.978495"
         id="stop13" />
      <stop
         style="stop-opacity:1;stop-color:#161413"
         offset="1"
         id="stop14" />
    </linearGradient>
    <clipPath
       clipPathUnits="userSpaceOnUse"
       id="clipPath14">
      <path
         d="m 12364.8,4974.2 c -8.9,1.4 -18,2 -27.6,2.7 -12.9,0.9 -26.2,1.8 -39.4,4.6 l -72.9,15.7 c -3.6,-9.4 -6.6,-19.2 -8.9,-29.3 15.2,-15.8 32,-27.3 50,-34.3 20.4,-8 36.2,-7.8 56.3,-7.6 3.1,0 6.4,0 9.7,0 7.2,0 14.9,-0.1 23.3,-0.7 24.6,-1.9 49.6,-7.6 74.5,-17.1 -1.1,16.3 -6.2,30.9 -14.4,41.2 -10.4,12.9 -27.4,21.3 -50.6,24.8 z"
         transform="translate(0,2.5000001e-4)"
         id="path14" />
    </clipPath>
    <linearGradient
       x1="0"
       y1="0"
       x2="1"
       y2="0"
       gradientUnits="userSpaceOnUse"
       gradientTransform="matrix(-1197.33,-1570.9,-1570.9,1197.33,13576.7,5996.6)"
       spreadMethod="pad"
       id="linearGradient17">
      <stop
         style="stop-opacity:1;stop-color:#d51e27"
         offset="0"
         id="stop15" />
      <stop
         style="stop-opacity:1;stop-color:#161413"
         offset="0.978495"
         id="stop16" />
      <stop
         style="stop-opacity:1;stop-color:#161413"
         offset="1"
         id="stop17" />
    </linearGradient>
    <clipPath
       clipPathUnits="userSpaceOnUse"
       id="clipPath17">
      <path
         d="m 12722.8,4779.4 -1.4,2.1 c -5.4,7.9 -11.3,15.9 -17.6,23.7 l -0.6,0.9 c -13.7,17.1 -28.2,33 -40.6,46.3 -8.4,9 -16.6,17.6 -25.3,25.6 -5.5,4.9 -11.1,9.6 -17,14 -4.4,-32.2 2.3,-62.7 19.2,-86.8 17.4,-24.6 44.2,-40.5 75.7,-44.7 8.4,-1.1 17.4,-4.8 25.9,-10.3 -4.4,7.6 -9,15.1 -13.7,22.3 l -1,1.5 c -1.2,1.9 -2.4,3.6 -3.6,5.4 z"
         transform="translate(0,2.5000001e-4)"
         id="path17" />
    </clipPath>
    <linearGradient
       x1="0"
       y1="0"
       x2="1"
       y2="0"
       gradientUnits="userSpaceOnUse"
       gradientTransform="matrix(-1197.33,-1570.9,-1570.9,1197.33,13993.5,5679)"
       spreadMethod="pad"
       id="linearGradient20">
      <stop
         style="stop-opacity:1;stop-color:#d51e27"
         offset="0"
         id="stop18" />
      <stop
         style="stop-opacity:1;stop-color:#161413"
         offset="0.978495"
         id="stop19" />
      <stop
         style="stop-opacity:1;stop-color:#161413"
         offset="1"
         id="stop20" />
    </linearGradient>
    <clipPath
       clipPathUnits="userSpaceOnUse"
       id="clipPath20">
      <path
         d="m 13359.7,4805.3 c 16.9,24 23.6,54.5 19.2,86.7 -5.9,-4.4 -11.5,-9.1 -17,-14 -8.7,-7.9 -16.9,-16.6 -25.3,-25.6 -12.5,-13.4 -27.1,-29.4 -40.9,-46.7 l -0.3,-0.4 c -6.3,-7.9 -12.2,-15.9 -17.6,-23.8 l -1.2,-1.8 c -1.3,-1.9 -2.5,-3.7 -3.8,-5.7 l -0.9,-1.3 c -4.8,-7.3 -9.4,-14.8 -13.8,-22.5 8.5,5.5 17.5,9.2 25.9,10.3 31.5,4.2 58.3,20.1 75.7,44.8 z"
         transform="translate(0,2.5000001e-4)"
         id="path20" />
    </clipPath>
    <linearGradient
       x1="0"
       y1="0"
       x2="1"
       y2="0"
       gradientUnits="userSpaceOnUse"
       gradientTransform="matrix(-1197.33,-1570.9,-1570.9,1197.33,13474.8,6074.3)"
       spreadMethod="pad"
       id="linearGradient23">
      <stop
         style="stop-opacity:1;stop-color:#d51e27"
         offset="0"
         id="stop21" />
      <stop
         style="stop-opacity:1;stop-color:#161413"
         offset="0.978495"
         id="stop22" />
      <stop
         style="stop-opacity:1;stop-color:#161413"
         offset="1"
         id="stop23" />
    </linearGradient>
    <clipPath
       clipPathUnits="userSpaceOnUse"
       id="clipPath23">
      <path
         d="m 11978.7,5380.8 c 22.2,-37.5 49.9,-70.8 81.9,-98.3 9.7,-8.4 19.7,-16.5 30.2,-23.8 33.8,-23.4 60.8,-37 108.7,-58.4 55.9,-25.1 113.8,-45.8 172.3,-61.7 l 71,-19.2 -73.2,-7.9 c -22.1,-2.3 -77.9,-13.6 -118.5,-66.9 -10.6,-13.8 -19.2,-29.4 -25.8,-46.3 l 73.4,10.4 c 22.9,3.3 46.2,3.1 67.9,2.5 14.8,-0.4 29.3,-1.2 43.6,-6 23.3,-7.7 44.3,-26 57.6,-50.2 12,-21.9 17.9,-48.2 17,-75.9 -0.4,-11.1 -1.8,-21.9 -3.2,-32.3 l -3.3,-24.6 c 45.1,-38.2 81.7,-72.8 112.2,-115 29.4,-40.6 51.4,-86.2 70.7,-129.4 23.8,-53.2 45.8,-108.2 65.5,-163.5 4.3,-11.9 8.3,-22.6 13.5,-31.4 7.3,-0.5 18.6,4.8 28.7,9.6 6.3,2.9 12.8,5.9 19.4,8.2 17.2,6 27.2,10.3 30.4,15.5 3.4,5.6 2.8,17.7 0.6,36.9 -10.9,95.8 -34.4,178.1 -72,251.7 -6.6,13 -24,26.7 -35.8,28.3 -39.2,5.2 -72.8,25.2 -94.6,56.2 -22,31.3 -30.1,70.7 -23.2,111.8 -21.6,26.5 -43.1,53.1 -64.7,79.6 6.7,-3.7 13.2,-7.8 19.5,-11.8 6.2,-4 12,-7.7 18,-11 30.4,-17 61.9,-34.6 89.3,-59.4 9.6,-8.7 18.2,-17.8 27,-27.2 12.8,-13.8 27.8,-30.2 42.1,-48.1 l 0.3,-0.4 c 6.8,-8.5 13.2,-17.2 19.1,-25.8 l 1.3,-2 c 1.4,-2 2.7,-4 4.1,-6 l 0.9,-1.5 c 21.3,-32.3 39.2,-68.2 53.3,-106.4 35.2,-95.9 53.2,-183.4 54.8,-267.7 0.5,-27.1 -11.8,-37.3 -30.5,-44.4 -25.7,-9.6 -59.1,-23.2 -90.2,-41.9 -26.2,-15.8 -39.1,-46.5 -34.6,-82 6.7,-53.6 29.9,-101.6 67.1,-138.9 20.1,-20.2 28.9,-21.7 37.3,-19.4 34.3,30.6 72.9,53.7 114.6,68.5 24.4,8.7 49.9,14.4 75.8,17 l 1.4,0.2 1.4,-0.2 c 25.9,-2.6 51.4,-8.3 75.8,-17 41.7,-14.8 80.2,-37.8 114.6,-68.5 8.5,-2.3 17.2,-0.8 37.3,19.4 37.2,37.3 60.4,85.3 67.1,138.9 4.5,35.5 -8.4,66.2 -34.6,82 -31.1,18.7 -64.5,32.3 -90.2,41.9 -18.7,7.1 -31,17.3 -30.5,44.4 1.6,84.3 19.5,171.8 54.8,267.7 14.1,38.2 32,74.1 53.4,106.6 l 0.8,1.2 c 1.4,2.2 2.8,4.3 4.3,6.4 l 1.1,1.7 c 5.9,8.6 12.3,17.3 19.1,25.9 l 0.3,0.3 c 14.3,17.9 29.3,34.4 42.1,48.1 8.8,9.4 17.4,18.6 27,27.2 27.4,24.8 58.8,42.4 89.3,59.4 6,3.3 11.8,7 18,11 6.3,4 12.7,8.1 19.5,11.8 -21.6,-26.5 -43.2,-53.1 -64.7,-79.6 6.9,-41.1 -1.2,-80.5 -23.2,-111.8 -21.8,-31 -55.4,-51 -94.6,-56.2 -11.8,-1.6 -29.2,-15.3 -35.8,-28.3 -37.6,-73.6 -61.1,-155.9 -72,-251.7 -2.2,-19.2 -2.8,-31.3 0.6,-36.9 3.2,-5.2 13.1,-9.5 30.4,-15.5 6.6,-2.3 13.1,-5.3 19.3,-8.2 10.2,-4.8 21.7,-10.1 28.8,-9.6 5.2,8.8 9.2,19.5 13.5,31.4 19.7,55.3 41.7,110.3 65.5,163.5 19.3,43.2 41.3,88.8 70.7,129.4 30.6,42.2 67.1,76.8 112.2,115 l -3.3,24.4 c -1.4,10.5 -2.8,21.3 -3.2,32.5 -0.9,27.7 4.9,54 17,75.9 13.3,24.2 34.3,42.5 57.6,50.2 14.3,4.8 28.8,5.6 43.6,6 21.7,0.6 45,0.8 67.9,-2.5 l 73.4,-10.4 c -6.6,16.9 -15.3,32.5 -25.8,46.3 -40.6,53.3 -96.4,64.6 -118.5,66.9 l -73.3,7.9 71.1,19.2 c 58.5,15.9 116.4,36.6 172.3,61.7 47.9,21.4 74.9,35 108.7,58.4 10.5,7.3 20.5,15.4 30.2,23.8 31.9,27.5 59.7,60.8 81.9,98.3 5.1,8.7 10.1,17.6 14.7,26.8 40.1,80.9 49.7,169.5 26.4,243 -7.4,23.2 -18,45.2 -30.2,69.5 -21,42.2 -46.1,88.1 -78.5,128.5 24.5,-64.3 39.5,-125.9 30,-190.2 -6.5,-43.5 -24.7,-85.7 -52.7,-122.8 -12.9,-17.2 -27.9,-33.3 -44.7,-48 -12.4,-10.8 -26.1,-21 -40.8,-30.5 -0.6,-0.4 -1.3,-0.9 -2,-1.3 -33.9,-21.7 -73.7,-39.8 -121.6,-55.2 -102.2,-33 -212,-45.3 -318.4,-36 24.8,-27.2 45.3,-59.2 60.2,-94 l 49.4,-115.6 -75.8,105.5 c -3,4.8 -6.6,9.5 -11,14.5 l -0.6,0.6 c -13.7,17.3 -28.3,33.2 -43.5,47.4 -10.8,10.1 -22.4,19.8 -33.6,29.2 -11.2,9.5 -22.2,19.2 -32.8,28.7 -9.5,8.4 -19.2,17.1 -29,25.3 -18.2,2.4 -36,7.8 -52.7,16.1 -0.3,0.2 -0.7,0.3 -1,0.5 -0.4,-0.2 -0.7,-0.3 -1,-0.4 -7.4,-3.3 -14.8,-6.7 -22.3,-10.1 -11.9,-5.3 -24.2,-10.9 -36.4,-16.1 -36.4,-15.6 -79.8,-31.8 -126,-33.9 -15.9,-0.7 -31.7,0.4 -46.3,1.6 h -1.4 c -14.7,-1.2 -30.4,-2.3 -46.4,-1.6 -46.1,2.1 -89.5,18.3 -125.9,33.9 -12.2,5.2 -24.5,10.8 -36.4,16.1 -7.4,3.4 -14.9,6.8 -22.3,10.1 -0.3,0.1 -0.6,0.2 -1,0.4 -0.3,-0.1 -0.5,-0.3 -0.7,-0.4 l -0.3,-0.1 c -16.7,-8.3 -34.5,-13.7 -52.7,-16.1 -9.8,-8.2 -19.5,-16.9 -29,-25.3 -10.6,-9.5 -21.6,-19.2 -32.7,-28.6 -11.3,-9.5 -22.9,-19.2 -33.7,-29.3 -15.2,-14.2 -29.8,-30.1 -43.6,-47.4 l -0.5,-0.6 c -4.4,-5 -8.1,-9.7 -11,-14.5 l -2.4,-3.4 -73.9,-103.3 49.9,116.8 c 14.9,34.8 35.4,66.8 60.2,94 -106.4,-9.3 -216.3,3 -318.4,36 -47.9,15.4 -87.7,33.5 -121.6,55.2 -0.7,0.4 -1.4,0.9 -2,1.3 -14.7,9.5 -28.5,19.7 -40.8,30.5 -16.9,14.7 -31.8,30.8 -44.8,48 -27.9,37.1 -46.1,79.3 -52.6,122.8 -9.5,64.3 5.5,125.9 30,190.2 -32.4,-40.4 -57.5,-86.3 -78.5,-128.5 -12.2,-24.3 -22.8,-46.3 -30.2,-69.5 -23.3,-73.5 -13.7,-162.1 26.4,-243 4.6,-9.2 9.6,-18.1 14.7,-26.8 z"
         transform="translate(0,2.5000001e-4)"
         id="path23" />
    </clipPath>
    <linearGradient
       x1="0"
       y1="0"
       x2="1"
       y2="0"
       gradientUnits="userSpaceOnUse"
       gradientTransform="matrix(-1197.33,-1570.9,-1570.9,1197.33,13756.4,5859.7)"
       spreadMethod="pad"
       id="linearGradient26">
      <stop
         style="stop-opacity:1;stop-color:#d51e27"
         offset="0"
         id="stop24" />
      <stop
         style="stop-opacity:1;stop-color:#161413"
         offset="0.978495"
         id="stop25" />
      <stop
         style="stop-opacity:1;stop-color:#161413"
         offset="1"
         id="stop26" />
    </linearGradient>
    <clipPath
       clipPathUnits="userSpaceOnUse"
       id="clipPath26">
      <path
         d="m 14034.4,5350.6 c -23.7,-36.3 -52.4,-68.4 -84.9,-95.2 43.3,-112.9 67.1,-235.4 67.1,-363.4 0,-560.8 -456.2,-1017.1 -1017,-1017.1 -560.8,0 -1017,456.3 -1017,1017.1 0,128 23.8,250.5 67.1,363.4 -32.5,26.8 -61.2,58.9 -84.9,95.2 -62.4,-140.2 -97.2,-295.4 -97.2,-458.6 0,-624.2 507.8,-1132 1132,-1132 624.2,0 1132,507.8 1132,1132 0,163.2 -34.8,318.4 -97.2,458.6 z"
         transform="translate(0,2.5000001e-4)"
         id="path26" />
    </clipPath>
    <linearGradient
       x1="0"
       y1="0"
       x2="1"
       y2="0"
       gradientUnits="userSpaceOnUse"
       gradientTransform="matrix(-1197.33,-1570.9,-1570.9,1197.33,13422.5,6114.2)"
       spreadMethod="pad"
       id="linearGradient29">
      <stop
         style="stop-opacity:1;stop-color:#d51e27"
         offset="0"
         id="stop27" />
      <stop
         style="stop-opacity:1;stop-color:#161413"
         offset="0.978495"
         id="stop28" />
      <stop
         style="stop-opacity:1;stop-color:#161413"
         offset="1"
         id="stop29" />
    </linearGradient>
    <clipPath
       clipPathUnits="userSpaceOnUse"
       id="clipPath29">
      <path
         d="m 12131.9,5508.4 c 11.5,-10 24.4,-19.6 38.3,-28.5 184.4,259.5 487.5,429.1 829.4,429.1 341.9,0 645,-169.6 829.4,-429.1 13.9,8.9 26.8,18.5 38.3,28.5 17.7,15.5 33.1,32.6 46,50.9 -206.1,281.5 -538.9,464.7 -913.7,464.7 -374.8,0 -707.6,-183.2 -913.7,-464.7 12.8,-18.3 28.3,-35.4 46,-50.9 z"
         transform="translate(0,2.5000001e-4)"
         id="path29" />
    </clipPath>
    <clipPath
       clipPathUnits="userSpaceOnUse"
       id="clipPath11-3">
      <path
         d="m 13662,4976.9 c -9.6,-0.7 -18.7,-1.3 -27.6,-2.7 -23.2,-3.5 -40.2,-11.9 -50.6,-24.8 -8.3,-10.3 -13.3,-24.9 -14.4,-41.2 24.9,9.5 49.9,15.2 74.5,17.1 12.3,0.9 23.3,0.8 33,0.7 20,-0.2 35.9,-0.4 56.3,7.6 18,7 34.8,18.5 49.9,34.3 -2.2,10.1 -5.2,19.9 -8.8,29.3 l -72.9,-15.7 c -13.3,-2.8 -26.5,-3.7 -39.4,-4.6 z"
         transform="translate(0,2.5000001e-4)"
         id="path11-7" />
    </clipPath>
    <clipPath
       clipPathUnits="userSpaceOnUse"
       id="clipPath14-5">
      <path
         d="m 12364.8,4974.2 c -8.9,1.4 -18,2 -27.6,2.7 -12.9,0.9 -26.2,1.8 -39.4,4.6 l -72.9,15.7 c -3.6,-9.4 -6.6,-19.2 -8.9,-29.3 15.2,-15.8 32,-27.3 50,-34.3 20.4,-8 36.2,-7.8 56.3,-7.6 3.1,0 6.4,0 9.7,0 7.2,0 14.9,-0.1 23.3,-0.7 24.6,-1.9 49.6,-7.6 74.5,-17.1 -1.1,16.3 -6.2,30.9 -14.4,41.2 -10.4,12.9 -27.4,21.3 -50.6,24.8 z"
         transform="translate(0,2.5000001e-4)"
         id="path14-9" />
    </clipPath>
    <clipPath
       clipPathUnits="userSpaceOnUse"
       id="clipPath17-2">
      <path
         d="m 12722.8,4779.4 -1.4,2.1 c -5.4,7.9 -11.3,15.9 -17.6,23.7 l -0.6,0.9 c -13.7,17.1 -28.2,33 -40.6,46.3 -8.4,9 -16.6,17.6 -25.3,25.6 -5.5,4.9 -11.1,9.6 -17,14 -4.4,-32.2 2.3,-62.7 19.2,-86.8 17.4,-24.6 44.2,-40.5 75.7,-44.7 8.4,-1.1 17.4,-4.8 25.9,-10.3 -4.4,7.6 -9,15.1 -13.7,22.3 l -1,1.5 c -1.2,1.9 -2.4,3.6 -3.6,5.4 z"
         transform="translate(0,2.5000001e-4)"
         id="path17-2" />
    </clipPath>
    <clipPath
       clipPathUnits="userSpaceOnUse"
       id="clipPath20-8">
      <path
         d="m 13359.7,4805.3 c 16.9,24 23.6,54.5 19.2,86.7 -5.9,-4.4 -11.5,-9.1 -17,-14 -8.7,-7.9 -16.9,-16.6 -25.3,-25.6 -12.5,-13.4 -27.1,-29.4 -40.9,-46.7 l -0.3,-0.4 c -6.3,-7.9 -12.2,-15.9 -17.6,-23.8 l -1.2,-1.8 c -1.3,-1.9 -2.5,-3.7 -3.8,-5.7 l -0.9,-1.3 c -4.8,-7.3 -9.4,-14.8 -13.8,-22.5 8.5,5.5 17.5,9.2 25.9,10.3 31.5,4.2 58.3,20.1 75.7,44.8 z"
         transform="translate(0,2.5000001e-4)"
         id="path20-9" />
    </clipPath>
    <clipPath
       clipPathUnits="userSpaceOnUse"
       id="clipPath23-7">
      <path
         d="m 11978.7,5380.8 c 22.2,-37.5 49.9,-70.8 81.9,-98.3 9.7,-8.4 19.7,-16.5 30.2,-23.8 33.8,-23.4 60.8,-37 108.7,-58.4 55.9,-25.1 113.8,-45.8 172.3,-61.7 l 71,-19.2 -73.2,-7.9 c -22.1,-2.3 -77.9,-13.6 -118.5,-66.9 -10.6,-13.8 -19.2,-29.4 -25.8,-46.3 l 73.4,10.4 c 22.9,3.3 46.2,3.1 67.9,2.5 14.8,-0.4 29.3,-1.2 43.6,-6 23.3,-7.7 44.3,-26 57.6,-50.2 12,-21.9 17.9,-48.2 17,-75.9 -0.4,-11.1 -1.8,-21.9 -3.2,-32.3 l -3.3,-24.6 c 45.1,-38.2 81.7,-72.8 112.2,-115 29.4,-40.6 51.4,-86.2 70.7,-129.4 23.8,-53.2 45.8,-108.2 65.5,-163.5 4.3,-11.9 8.3,-22.6 13.5,-31.4 7.3,-0.5 18.6,4.8 28.7,9.6 6.3,2.9 12.8,5.9 19.4,8.2 17.2,6 27.2,10.3 30.4,15.5 3.4,5.6 2.8,17.7 0.6,36.9 -10.9,95.8 -34.4,178.1 -72,251.7 -6.6,13 -24,26.7 -35.8,28.3 -39.2,5.2 -72.8,25.2 -94.6,56.2 -22,31.3 -30.1,70.7 -23.2,111.8 -21.6,26.5 -43.1,53.1 -64.7,79.6 6.7,-3.7 13.2,-7.8 19.5,-11.8 6.2,-4 12,-7.7 18,-11 30.4,-17 61.9,-34.6 89.3,-59.4 9.6,-8.7 18.2,-17.8 27,-27.2 12.8,-13.8 27.8,-30.2 42.1,-48.1 l 0.3,-0.4 c 6.8,-8.5 13.2,-17.2 19.1,-25.8 l 1.3,-2 c 1.4,-2 2.7,-4 4.1,-6 l 0.9,-1.5 c 21.3,-32.3 39.2,-68.2 53.3,-106.4 35.2,-95.9 53.2,-183.4 54.8,-267.7 0.5,-27.1 -11.8,-37.3 -30.5,-44.4 -25.7,-9.6 -59.1,-23.2 -90.2,-41.9 -26.2,-15.8 -39.1,-46.5 -34.6,-82 6.7,-53.6 29.9,-101.6 67.1,-138.9 20.1,-20.2 28.9,-21.7 37.3,-19.4 34.3,30.6 72.9,53.7 114.6,68.5 24.4,8.7 49.9,14.4 75.8,17 l 1.4,0.2 1.4,-0.2 c 25.9,-2.6 51.4,-8.3 75.8,-17 41.7,-14.8 80.2,-37.8 114.6,-68.5 8.5,-2.3 17.2,-0.8 37.3,19.4 37.2,37.3 60.4,85.3 67.1,138.9 4.5,35.5 -8.4,66.2 -34.6,82 -31.1,18.7 -64.5,32.3 -90.2,41.9 -18.7,7.1 -31,17.3 -30.5,44.4 1.6,84.3 19.5,171.8 54.8,267.7 14.1,38.2 32,74.1 53.4,106.6 l 0.8,1.2 c 1.4,2.2 2.8,4.3 4.3,6.4 l 1.1,1.7 c 5.9,8.6 12.3,17.3 19.1,25.9 l 0.3,0.3 c 14.3,17.9 29.3,34.4 42.1,48.1 8.8,9.4 17.4,18.6 27,27.2 27.4,24.8 58.8,42.4 89.3,59.4 6,3.3 11.8,7 18,11 6.3,4 12.7,8.1 19.5,11.8 -21.6,-26.5 -43.2,-53.1 -64.7,-79.6 6.9,-41.1 -1.2,-80.5 -23.2,-111.8 -21.8,-31 -55.4,-51 -94.6,-56.2 -11.8,-1.6 -29.2,-15.3 -35.8,-28.3 -37.6,-73.6 -61.1,-155.9 -72,-251.7 -2.2,-19.2 -2.8,-31.3 0.6,-36.9 3.2,-5.2 13.1,-9.5 30.4,-15.5 6.6,-2.3 13.1,-5.3 19.3,-8.2 10.2,-4.8 21.7,-10.1 28.8,-9.6 5.2,8.8 9.2,19.5 13.5,31.4 19.7,55.3 41.7,110.3 65.5,163.5 19.3,43.2 41.3,88.8 70.7,129.4 30.6,42.2 67.1,76.8 112.2,115 l -3.3,24.4 c -1.4,10.5 -2.8,21.3 -3.2,32.5 -0.9,27.7 4.9,54 17,75.9 13.3,24.2 34.3,42.5 57.6,50.2 14.3,4.8 28.8,5.6 43.6,6 21.7,0.6 45,0.8 67.9,-2.5 l 73.4,-10.4 c -6.6,16.9 -15.3,32.5 -25.8,46.3 -40.6,53.3 -96.4,64.6 -118.5,66.9 l -73.3,7.9 71.1,19.2 c 58.5,15.9 116.4,36.6 172.3,61.7 47.9,21.4 74.9,35 108.7,58.4 10.5,7.3 20.5,15.4 30.2,23.8 31.9,27.5 59.7,60.8 81.9,98.3 5.1,8.7 10.1,17.6 14.7,26.8 40.1,80.9 49.7,169.5 26.4,243 -7.4,23.2 -18,45.2 -30.2,69.5 -21,42.2 -46.1,88.1 -78.5,128.5 24.5,-64.3 39.5,-125.9 30,-190.2 -6.5,-43.5 -24.7,-85.7 -52.7,-122.8 -12.9,-17.2 -27.9,-33.3 -44.7,-48 -12.4,-10.8 -26.1,-21 -40.8,-30.5 -0.6,-0.4 -1.3,-0.9 -2,-1.3 -33.9,-21.7 -73.7,-39.8 -121.6,-55.2 -102.2,-33 -212,-45.3 -318.4,-36 24.8,-27.2 45.3,-59.2 60.2,-94 l 49.4,-115.6 -75.8,105.5 c -3,4.8 -6.6,9.5 -11,14.5 l -0.6,0.6 c -13.7,17.3 -28.3,33.2 -43.5,47.4 -10.8,10.1 -22.4,19.8 -33.6,29.2 -11.2,9.5 -22.2,19.2 -32.8,28.7 -9.5,8.4 -19.2,17.1 -29,25.3 -18.2,2.4 -36,7.8 -52.7,16.1 -0.3,0.2 -0.7,0.3 -1,0.5 -0.4,-0.2 -0.7,-0.3 -1,-0.4 -7.4,-3.3 -14.8,-6.7 -22.3,-10.1 -11.9,-5.3 -24.2,-10.9 -36.4,-16.1 -36.4,-15.6 -79.8,-31.8 -126,-33.9 -15.9,-0.7 -31.7,0.4 -46.3,1.6 h -1.4 c -14.7,-1.2 -30.4,-2.3 -46.4,-1.6 -46.1,2.1 -89.5,18.3 -125.9,33.9 -12.2,5.2 -24.5,10.8 -36.4,16.1 -7.4,3.4 -14.9,6.8 -22.3,10.1 -0.3,0.1 -0.6,0.2 -1,0.4 -0.3,-0.1 -0.5,-0.3 -0.7,-0.4 l -0.3,-0.1 c -16.7,-8.3 -34.5,-13.7 -52.7,-16.1 -9.8,-8.2 -19.5,-16.9 -29,-25.3 -10.6,-9.5 -21.6,-19.2 -32.7,-28.6 -11.3,-9.5 -22.9,-19.2 -33.7,-29.3 -15.2,-14.2 -29.8,-30.1 -43.6,-47.4 l -0.5,-0.6 c -4.4,-5 -8.1,-9.7 -11,-14.5 l -2.4,-3.4 -73.9,-103.3 49.9,116.8 c 14.9,34.8 35.4,66.8 60.2,94 -106.4,-9.3 -216.3,3 -318.4,36 -47.9,15.4 -87.7,33.5 -121.6,55.2 -0.7,0.4 -1.4,0.9 -2,1.3 -14.7,9.5 -28.5,19.7 -40.8,30.5 -16.9,14.7 -31.8,30.8 -44.8,48 -27.9,37.1 -46.1,79.3 -52.6,122.8 -9.5,64.3 5.5,125.9 30,190.2 -32.4,-40.4 -57.5,-86.3 -78.5,-128.5 -12.2,-24.3 -22.8,-46.3 -30.2,-69.5 -23.3,-73.5 -13.7,-162.1 26.4,-243 4.6,-9.2 9.6,-18.1 14.7,-26.8 z"
         transform="translate(0,2.5000001e-4)"
         id="path23-3" />
    </clipPath>
    <clipPath
       clipPathUnits="userSpaceOnUse"
       id="clipPath26-6">
      <path
         d="m 14034.4,5350.6 c -23.7,-36.3 -52.4,-68.4 -84.9,-95.2 43.3,-112.9 67.1,-235.4 67.1,-363.4 0,-560.8 -456.2,-1017.1 -1017,-1017.1 -560.8,0 -1017,456.3 -1017,1017.1 0,128 23.8,250.5 67.1,363.4 -32.5,26.8 -61.2,58.9 -84.9,95.2 -62.4,-140.2 -97.2,-295.4 -97.2,-458.6 0,-624.2 507.8,-1132 1132,-1132 624.2,0 1132,507.8 1132,1132 0,163.2 -34.8,318.4 -97.2,458.6 z"
         transform="translate(0,2.5000001e-4)"
         id="path26-1" />
    </clipPath>
    <clipPath
       clipPathUnits="userSpaceOnUse"
       id="clipPath29-2">
      <path
         d="m 12131.9,5508.4 c 11.5,-10 24.4,-19.6 38.3,-28.5 184.4,259.5 487.5,429.1 829.4,429.1 341.9,0 645,-169.6 829.4,-429.1 13.9,8.9 26.8,18.5 38.3,28.5 17.7,15.5 33.1,32.6 46,50.9 -206.1,281.5 -538.9,464.7 -913.7,464.7 -374.8,0 -707.6,-183.2 -913.7,-464.7 12.8,-18.3 28.3,-35.4 46,-50.9 z"
         transform="translate(0,2.5000001e-4)"
         id="path29-9" />
    </clipPath>
    <clipPath
       clipPathUnits="userSpaceOnUse"
       id="clipPath17-2-7">
      <path
         d="m 12722.8,4779.4 -1.4,2.1 c -5.4,7.9 -11.3,15.9 -17.6,23.7 l -0.6,0.9 c -13.7,17.1 -28.2,33 -40.6,46.3 -8.4,9 -16.6,17.6 -25.3,25.6 -5.5,4.9 -11.1,9.6 -17,14 -4.4,-32.2 2.3,-62.7 19.2,-86.8 17.4,-24.6 44.2,-40.5 75.7,-44.7 8.4,-1.1 17.4,-4.8 25.9,-10.3 -4.4,7.6 -9,15.1 -13.7,22.3 l -1,1.5 c -1.2,1.9 -2.4,3.6 -3.6,5.4 z m -370.173,0 1.4,2.1 c 5.4,7.9 11.3,15.9 17.6,23.7 l 0.6,0.9 c 13.7,17.1 28.2,33 40.6,46.3 8.4,9 16.6,17.6 25.3,25.6 5.5,4.9 11.1,9.6 17,14 4.4,-32.2 -2.3,-62.7 -19.2,-86.8 -17.4,-24.6 -44.2,-40.5 -75.7,-44.7 -8.4,-1.1 -17.4,-4.8 -25.9,-10.3 4.4,7.6 9,15.1 13.7,22.3 l 1,1.5 c 1.2,1.9 2.4,3.6 3.6,5.4 z"
         transform="translate(0,2.5000001e-4)"
         id="path17-2-5" />
    </clipPath>
    <clipPath
       clipPathUnits="userSpaceOnUse"
       id="clipPath17-2-6">
      <path
         d="m 12722.8,4779.4 -1.4,2.1 c -5.4,7.9 -11.3,15.9 -17.6,23.7 l -0.6,0.9 c -13.7,17.1 -28.2,33 -40.6,46.3 -8.4,9 -16.6,17.6 -25.3,25.6 -5.5,4.9 -11.1,9.6 -17,14 -4.4,-32.2 2.3,-62.7 19.2,-86.8 17.4,-24.6 44.2,-40.5 75.7,-44.7 8.4,-1.1 17.4,-4.8 25.9,-10.3 -4.4,7.6 -9,15.1 -13.7,22.3 l -1,1.5 c -1.2,1.9 -2.4,3.6 -3.6,5.4 z"
         transform="translate(0,2.5000001e-4)"
         id="path17-2-2" />
    </clipPath>
    <clipPath
       clipPathUnits="userSpaceOnUse"
       id="clipPath17-2-7-2">
      <path
         d="m 12722.8,4779.4 -1.4,2.1 c -5.4,7.9 -11.3,15.9 -17.6,23.7 l -0.6,0.9 c -13.7,17.1 -28.2,33 -40.6,46.3 -8.4,9 -16.6,17.6 -25.3,25.6 -5.5,4.9 -11.1,9.6 -17,14 -4.4,-32.2 2.3,-62.7 19.2,-86.8 17.4,-24.6 44.2,-40.5 75.7,-44.7 8.4,-1.1 17.4,-4.8 25.9,-10.3 -4.4,7.6 -9,15.1 -13.7,22.3 l -1,1.5 c -1.2,1.9 -2.4,3.6 -3.6,5.4 z"
         transform="translate(0,2.5000001e-4)"
         id="path17-2-5-0" />
    </clipPath>
    <inkscape:path-effect
       effect="mirror_symmetry"
       start_point="12746.663,5883.5667"
       end_point="12746.663,3657.3601"
       center_point="12746.663,4770.4634"
       id="path-effect2-2"
       is_visible="true"
       lpeversion="1.2"
       lpesatellites=""
       mode="vertical"
       discard_orig_path="false"
       fuse_paths="false"
       oposite_fuse="false"
       split_items="false"
       split_open="false"
       link_styles="false" />
  </defs>
  <sodipodi:namedview
     id="namedview1"
     pagecolor="#ffffff"
     bordercolor="#000000"
     borderopacity="0.25"
     inkscape:showpageshadow="2"
     inkscape:pageopacity="0.0"
     inkscape:pagecheckerboard="0"
     inkscape:deskcolor="#d1d1d1"
     showgrid="false"
     inkscape:zoom="0.125"
     inkscape:cx="176"
     inkscape:cy="1108"
     inkscape:window-width="1910"
     inkscape:window-height="1009"
     inkscape:window-x="0"
     inkscape:window-y="0"
     inkscape:window-maximized="1"
     inkscape:current-layer="g1">
    <inkscape:page
       x="0"
       y="0"
       inkscape:label="1"
       id="page1"
       width="2666.6667"
       height="2666.6667"
       margin="0"
       bleed="0" />
  </sodipodi:namedview>
  <g
     id="g1"
     inkscape:groupmode="layer"
     inkscape:label="1">
    <circle
       style="fill:#00002d;fill-opacity:1;stroke-width:0.993127"
       id="path35"
       cx="1333.3307"
       cy="1333.3339"
       inkscape:label="Risy Background"
       r="1329.5684" />
    <g
       id="g34"
       inkscape:label="Risy"
       transform="matrix(8.8090208,0,0,8.8090208,-13935.166,-16411.558)"
       style="display:inline;fill:#6366f1;fill-opacity:1">
      <path
         id="path6"
         d="m 13120.2,4090.4 c -39.6,26.4 -80.1,39.3 -120.2,38.2 h -0.4 -0.4 c -40.1,1.1 -80.6,-11.8 -120.2,-38.2 -5.1,-3.4 -10.3,-7.5 -16.9,-13.4 -3.1,-2.7 -4.9,-6.9 -4.9,-11.5 -0.1,-4.6 1.6,-8.9 4.6,-11.8 6.7,-6.5 13.5,-13 20.3,-19.4 25.6,-0.1 51.1,-0.2 76.7,-0.2 h 29.1 11.7 11.7 29.1 c 25.6,0 51.1,0.1 76.7,0.2 6.8,6.4 13.6,12.9 20.3,19.4 3,2.9 4.7,7.2 4.6,11.8 0,4.6 -1.8,8.8 -4.9,11.5 -6.5,5.8 -11.8,10.1 -16.9,13.4"
         style="fill:#6366f1;fill-opacity:1;fill-rule:nonzero;stroke:none"
         transform="matrix(0.13333333,0,0,-0.13333333,0,2666.6667)" />
      <path
         id="path9"
         d="m 13662,4976.9 c -9.6,-0.7 -18.7,-1.3 -27.6,-2.7 -23.2,-3.5 -40.2,-11.9 -50.6,-24.8 -8.3,-10.3 -13.3,-24.9 -14.4,-41.2 24.9,9.5 49.9,15.2 74.5,17.1 12.3,0.9 23.3,0.8 33,0.7 20,-0.2 35.9,-0.4 56.3,7.6 18,7 34.8,18.5 49.9,34.3 -2.2,10.1 -5.2,19.9 -8.8,29.3 l -72.9,-15.7 c -13.3,-2.8 -26.5,-3.7 -39.4,-4.6"
         style="fill:#6366f1;fill-opacity:1;fill-rule:nonzero;stroke:none"
         transform="matrix(0.13333333,0,0,-0.13333333,0,2666.6667)"
         clip-path="url(#clipPath11-3)" />
      <path
         id="path12"
         d="m 12364.8,4974.2 c -8.9,1.4 -18,2 -27.6,2.7 -12.9,0.9 -26.2,1.8 -39.4,4.6 l -72.9,15.7 c -3.6,-9.4 -6.6,-19.2 -8.9,-29.3 15.2,-15.8 32,-27.3 50,-34.3 20.4,-8 36.2,-7.8 56.3,-7.6 3.1,0 6.4,0 9.7,0 7.2,0 14.9,-0.1 23.3,-0.7 24.6,-1.9 49.6,-7.6 74.5,-17.1 -1.1,16.3 -6.2,30.9 -14.4,41.2 -10.4,12.9 -27.4,21.3 -50.6,24.8"
         style="fill:#6366f1;fill-opacity:1;fill-rule:nonzero;stroke:none"
         transform="matrix(0.13333333,0,0,-0.13333333,0,2666.6667)"
         clip-path="url(#clipPath14-5)" />
      <path
         id="path21"
         clip-path="url(#clipPath23-7)"
         style="display:inline;fill:#6366f1;fill-opacity:1;fill-rule:nonzero;stroke:none"
         d="m 12046.3,5848.5994 c -32.4,-40.4 -57.5,-86.2999 -78.5,-128.4999 -12.2,-24.3 -22.799,-46.2989 -30.199,-69.4988 -23.3,-73.5 -13.7,-162.1 26.4,-242.9999 4.6,-9.2 9.6,-18.1008 14.7,-26.8008 22.2,-37.5 49.899,-70.8001 81.899,-98.3001 9.7,-8.4 19.699,-16.4993 30.199,-23.7993 33.8,-23.4 60.8,-37.0007 108.7,-58.4007 55.9,-25.1 113.801,-45.7999 172.301,-61.6999 l 71,-19.1998 -73.2,-7.9003 c -22.1,-2.3 -77.9,-13.5998 -118.5,-66.8998 -10.6,-13.8 -19.199,-29.3999 -25.799,-46.2999 l 73.4,10.3998 c 22.9,3.3 46.199,3.0993 67.899,2.4993 14.8,-0.4 29.301,-1.1997 43.601,-5.9997 23.3,-7.7 44.299,-25.9994 57.599,-50.1994 12,-21.8999 17.9,-48.201 17,-75.9009 -0.4,-11.1 -1.8,-21.9 -3.2,-32.3 l -3.301,-24.5992 c 45.1,-38.1999 81.701,-72.8005 112.201,-115.0005 29.4,-40.6 51.401,-86.1995 70.701,-129.3995 23.8,-53.1999 45.799,-108.2004 65.499,-163.5004 4.3,-11.9 8.3,-22.6004 13.5,-31.4003 7.3,-0.5 18.6,4.7998 28.7,9.5998 6.3,2.9 12.8,5.9014 19.4,8.2014 17.2,6 27.2,10.2998 30.4,15.4998 3.4,5.6 2.8,17.6996 0.6,36.8995 -10.9,95.7999 -34.4,178.1002 -72,251.7002 -6.6,12.9999 -24,26.7007 -35.8,28.3007 -39.2,5.2 -72.8,25.1991 -94.6,56.199 -22,31.3 -30.099,70.6995 -23.199,111.7995 -21.6,26.5 -43.102,53.1009 -64.702,79.6009 6.7,-3.7 13.201,-7.7999 19.501,-11.7999 6.2,-4 12.001,-7.7 18.001,-11 30.4,-17 61.899,-34.6001 89.299,-59.4001 9.6,-8.7 18.2,-17.7999 27,-27.1999 12.8,-13.8 27.799,-30.2008 42.099,-48.1008 l 0.301,-0.3991 c 6.8,-8.5 13.2,-17.1997 19.1,-25.7997 l 1.301,-2.0005 c 1.4,-2 2.699,-3.9997 4.099,-5.9997 l 0.899,-1.4999 c 21.3,-32.3 39.201,-68.2001 53.301,-106.4001 35.2,-95.8999 53.201,-183.4005 54.801,-267.7004 0.5,-27.1 -11.801,-37.3009 -30.501,-44.4009 -25.7,-9.5999 -59.1,-23.1998 -90.2,-41.8998 -26.2,-15.8 -39.1,-46.4988 -34.6,-81.9988 6.7,-53.6 29.899,-101.6013 67.099,-138.9013 20.1,-20.1999 28.901,-21.6992 37.301,-19.3992 34.3,30.5999 72.899,53.6994 114.599,68.4994 24.4,8.7 49.902,14.3997 75.802,16.9997 l 1.4,0.2013 1.4,-0.2013 c 25.9,-2.6 51.399,-8.2997 75.799,-16.9997 41.7,-14.8 80.2,-37.7995 114.6,-68.4994 8.5,-2.3 17.2,-0.8007 37.3,19.3992 37.2,37.3 60.4,85.3013 67.1,138.9013 4.5,35.5 -8.4,66.1988 -34.6,81.9988 -31.1,18.7 -64.5,32.2999 -90.2,41.8998 -18.7,7.1 -30.999,17.3009 -30.499,44.4009 1.6,84.2999 19.499,171.8005 54.799,267.7004 14.1,38.2 32,74.0997 53.4,106.5996 l 0.8,1.2006 c 1.4,2.2 2.8,4.2988 4.3,6.3988 l 1.099,1.7012 c 5.9,8.6 12.3,17.2995 19.1,25.8995 l 0.301,0.2993 c 14.3,17.9 29.3,34.4008 42.1,48.1008 8.8,9.4 17.4,18.5999 27,27.1999 27.4,24.8 58.801,42.4001 89.301,59.4001 6,3.3 11.799,7 17.999,11 6.3,4 12.7,8.0999 19.5,11.7999 -21.6,-26.5 -43.199,-53.1009 -64.699,-79.6009 6.9,-41.1 -1.201,-80.4995 -23.201,-111.7995 -21.8,-30.9999 -55.4,-50.999 -94.6,-56.199 -11.8,-1.6 -29.201,-15.3008 -35.801,-28.3007 -37.6,-73.6 -61.099,-155.9003 -71.999,-251.7002 -2.2,-19.1999 -2.8,-31.2995 0.6,-36.8995 3.2,-5.2 13.099,-9.4998 30.399,-15.4998 6.6,-2.3 13.101,-5.3014 19.301,-8.2014 10.2,-4.8 21.7,-10.0998 28.8,-9.5998 5.2,8.7999 9.199,19.5003 13.499,31.4003 19.7,55.3 41.702,110.3005 65.502,163.5004 19.3,43.2 41.299,88.7995 70.699,129.3995 30.6,42.2 67.1,76.8006 112.2,115.0005 l -3.301,24.3996 c -1.4,10.5 -2.799,21.2996 -3.199,32.4996 -0.9,27.6999 4.9,54.001 17,75.9009 13.3,24.2 34.301,42.4994 57.601,50.1994 14.3,4.8 28.799,5.5997 43.599,5.9997 21.7,0.6 45.001,0.8007 67.901,-2.4993 l 73.4,-10.3998 c -6.6,16.9 -15.302,32.4999 -25.802,46.2999 -40.6,53.3 -96.399,64.5998 -118.499,66.8998 l -73.3,7.9003 71.1,19.1998 c 58.5,15.9 116.401,36.5999 172.3,61.6999 47.9,21.4 74.9,35.0007 108.7,58.4007 10.5,7.3 20.5,15.3993 30.2,23.7993 31.9,27.5 59.701,60.8001 81.901,98.3001 5.1,8.7 10.1,17.6008 14.7,26.8008 40.1,80.8999 49.7,169.4999 26.4,242.9999 -7.4,23.1999 -18.002,45.1988 -30.202,69.4988 -21,42.2 -46.1,88.0999 -78.5,128.4999 24.5,-64.2999 39.5,-125.8998 30,-190.1998 -6.5,-43.4999 -24.698,-85.6995 -52.698,-122.7995 -12.9,-17.1999 -27.9,-33.2993 -44.7,-47.9993 -12.4,-10.8 -26.101,-21.0007 -40.801,-30.5007 -0.6,-0.4 -1.3,-0.9004 -2,-1.3004 -33.9,-21.7 -73.699,-39.7997 -121.599,-55.1997 -102.2,-32.9999 -212.001,-45.2999 -318.401,-35.9999 24.8,-27.2 45.3,-59.1999 60.2,-93.9999 l 49.4,-115.6008 -75.8,105.5004 c -3,4.8 -6.6,9.5005 -11,14.5004 l -0.6,0.6004 c -13.7,17.2999 -28.3,33.199 -43.5,47.399 -10.8,10.1 -22.4,19.8004 -33.6,29.2003 -11.2,9.5 -22.201,19.1999 -32.801,28.6999 -9.5,8.4 -19.199,17.1009 -28.999,25.3009 -18.2,2.4 -36,7.8001 -52.7,16.1001 -0.3,0.2 -0.699,0.2988 -0.999,0.4988 -0.4,-0.2 -0.701,-0.2991 -1.001,-0.3991 -7.4,-3.3 -14.8,-6.7004 -22.3,-10.1004 -11.9,-5.3 -24.201,-10.9001 -36.401,-16.1001 -36.399,-15.6 -79.798,-31.7997 -125.998,-33.8997 -15.9,-0.7 -31.7,0.3997 -46.3,1.5997 h -1.4 c -14.7,-1.2 -30.402,-2.2997 -46.402,-1.5997 -46.1,2.1 -89.499,18.2997 -125.899,33.8997 -12.2,5.2 -24.5,10.8001 -36.4,16.1001 -7.4,3.4 -14.9,6.8004 -22.3,10.1004 -0.3,0.1 -0.599,0.1991 -0.999,0.3991 -0.3,-0.1 -0.5,-0.2991 -0.7,-0.3991 l -0.301,-0.1 c -16.7,-8.3 -34.501,-13.7001 -52.701,-16.1001 -9.8,-8.2 -19.499,-16.9009 -28.999,-25.3009 -10.6,-9.5 -21.601,-19.2001 -32.701,-28.6001 -11.3,-9.5 -22.9,-19.2001 -33.7,-29.3001 -15.2,-14.2 -29.799,-30.0991 -43.599,-47.399 l -0.501,-0.6004 c -4.4,-4.9999 -8.1,-9.7004 -11,-14.5004 l -2.399,-3.4006 -73.901,-103.2987 49.9,116.7997 c 14.9,34.8 35.4,66.7999 60.2,93.9999 -106.4,-9.3 -216.298,3 -318.398,35.9999 -47.9,15.4 -87.701,33.4997 -121.601,55.1997 -0.7,0.4 -1.4,0.9004 -2,1.3004 -14.7,9.5 -28.499,19.7007 -40.799,30.5007 -16.9,14.7 -31.8,30.7994 -44.8,47.9993 -27.9,37.1 -46.101,79.2996 -52.601,122.7995 -9.5,64.3 5.5,125.8999 30,190.1998 z m 768.918,-1516.0008 c 7.705,-5.5727 15.865,-9.3218 23.48,-10.4363 28.556,-4.2555 52.851,-20.3655 68.626,-45.2905 15.32,-24.4184 21.396,-55.3216 17.407,-87.947 -5.349,4.4582 -10.426,9.2198 -15.412,14.1845 -7.887,8.1057 -15.321,16.8189 -22.936,25.9378 -11.242,13.4757 -24.387,29.5859 -36.807,46.9118 l -0.543,0.9129 c -5.712,7.903 -11.062,16.0078 -15.958,24.0121 l -1.268,2.1285 c -1.088,1.8238 -2.175,3.5458 -3.263,5.4709 l -0.908,1.5199 c -4.261,7.2951 -8.429,14.895 -12.418,22.5954 z m 368.766,0 c -3.989,-7.7004 -8.16,-15.3003 -12.42,-22.5954 l -0.907,-1.5199 c -1.088,-1.9251 -2.176,-3.6471 -3.264,-5.4709 l -1.269,-2.1285 c -4.895,-8.0043 -10.244,-16.1091 -15.955,-24.0121 l -0.544,-0.9129 c -12.42,-17.3259 -25.565,-33.4361 -36.806,-46.9118 -7.616,-9.1189 -15.05,-17.8321 -22.937,-25.9378 -4.986,-4.9647 -10.063,-9.7263 -15.411,-14.1845 -3.989,32.6254 2.084,63.5286 17.405,87.947 15.774,24.925 40.071,41.035 68.628,45.2905 7.615,1.1145 15.774,4.8636 23.48,10.4363 z"
         transform="matrix(0.13333333,0,0,-0.13333333,0,2666.6667)" />
      <path
         id="path24"
         d="m 14034.4,5350.6 c -23.7,-36.3 -52.4,-68.4 -84.9,-95.2 43.3,-112.9 67.1,-235.4 67.1,-363.4 0,-560.8 -456.2,-1017.1 -1017,-1017.1 -560.8,0 -1017,456.3 -1017,1017.1 0,128 23.8,250.5 67.1,363.4 -32.5,26.8 -61.2,58.9 -84.9,95.2 -62.4,-140.2 -97.2,-295.4 -97.2,-458.6 0,-624.2 507.8,-1132 1132,-1132 624.2,0 1132,507.8 1132,1132 0,163.2 -34.8,318.4 -97.2,458.6"
         style="fill:#6366f1;fill-opacity:1;fill-rule:nonzero;stroke:none"
         transform="matrix(0.13333333,0,0,-0.13333333,0,2666.6667)"
         clip-path="url(#clipPath26-6)" />
      <path
         id="path27"
         d="m 12131.9,5508.4 c 11.5,-10 24.4,-19.6 38.3,-28.5 184.4,259.5 487.5,429.1 829.4,429.1 341.9,0 645,-169.6 829.4,-429.1 13.9,8.9 26.8,18.5 38.3,28.5 17.7,15.5 33.1,32.6 46,50.9 -206.1,281.5 -538.9,464.7 -913.7,464.7 -374.8,0 -707.6,-183.2 -913.7,-464.7 12.8,-18.3 28.3,-35.4 46,-50.9"
         style="fill:#6366f1;fill-opacity:1;fill-rule:nonzero;stroke:none"
         transform="matrix(0.13333333,0,0,-0.13333333,0,2666.6667)"
         clip-path="url(#clipPath29-2)" />
    </g>
  </g>
</svg>
