<?xml version="1.0" encoding="UTF-8" standalone="no"?>
<!-- Created with Inkscape (http://www.inkscape.org/) -->

<svg
   version="1.1"
   id="svg1"
   width="1024"
   height="1024"
   viewBox="0 0 1024 1024"
   sodipodi:docname="risy_hero.png"
   inkscape:version="1.3.1 (9b9bdc1480, 2023-11-25, custom)"
   xmlns:inkscape="http://www.inkscape.org/namespaces/inkscape"
   xmlns:sodipodi="http://sodipodi.sourceforge.net/DTD/sodipodi-0.dtd"
   xmlns="http://www.w3.org/2000/svg"
   xmlns:svg="http://www.w3.org/2000/svg">
  <defs
     id="defs1" />
  <sodipodi:namedview
     id="namedview1"
     pagecolor="#ffffff"
     bordercolor="#000000"
     borderopacity="0.25"
     inkscape:showpageshadow="2"
     inkscape:pageopacity="0.0"
     inkscape:pagecheckerboard="0"
     inkscape:deskcolor="#d1d1d1"
     showgrid="false"
     inkscape:zoom="0.55449877"
     inkscape:cx="355.27581"
     inkscape:cy="442.74219"
     inkscape:window-width="1910"
     inkscape:window-height="1009"
     inkscape:window-x="0"
     inkscape:window-y="0"
     inkscape:window-maximized="1"
     inkscape:current-layer="g1" />
  <g
     inkscape:groupmode="layer"
     inkscape:label="Risy DAO Hero"
     id="g1">
    <g
       id="g18"
       inkscape:label="Hero"
       transform="translate(2.1779529,0.43553272)">
      <g
         id="g17"
         inkscape:label="Bull"
         transform="translate(-441.2675,-133.98094)"
         style="opacity:1;fill:#16223b;fill-opacity:1">
        <path
           style="display:inline;fill:#16223b;fill-opacity:1"
           d="m 606.81365,342.24483 c -3.025,-0.75492 -6.7375,-1.39165 -8.25,-1.41495 -1.5125,-0.0233 -2.75,-0.43092 -2.75,-0.90581 0,-0.47489 -2.71984,-2.08403 -6.04409,-3.57586 -10.86615,-4.87644 -25.15114,-21.2312 -28.96539,-33.16223 -0.68547,-2.14416 -1.6361,-4.92631 -2.11251,-6.18256 -4.06523,-10.71964 -2.64946,-33.02233 3.2353,-50.96591 2.65819,-8.10523 3.19915,-7.89759 5.21058,2 4.49686,22.12748 11.46394,41.8392 16.97174,48.01751 3.89451,4.36863 11.03341,9.71215 12.98955,9.72278 0.98185,0.005 2.78185,0.62132 4,1.36884 3.84099,2.35704 16.02378,3.9867 25.04432,3.35011 8.42108,-0.59428 8.42108,-0.59428 -0.002,16.34824 -9.474,19.05631 -8.32962,18.14448 -19.32747,15.39984 z"
           id="path16" />
        <path
           style="display:inline;fill:#16223b;fill-opacity:1"
           d="m 752.07324,702.33099 c -2.7794,-2.49891 -5.24851,-4.54348 -5.48691,-4.54348 -0.2384,0 -2.87228,-2.24723 -5.85307,-4.99385 -2.98079,-2.74662 -5.76468,-4.99662 -6.18643,-5 -0.42176,-0.003 -2.67732,-1.91865 -5.01235,-4.25615 -2.33504,-2.3375 -6.18706,-5.825 -8.56004,-7.75 -4.67843,-3.79522 -5.94496,-4.87973 -14.79144,-12.6658 -8.86694,-7.80407 -16.02627,-13.3342 -17.26251,-13.3342 -0.60876,0 -1.10684,-0.62244 -1.10684,-1.38321 0,-0.76076 -1.99767,-2.89826 -4.43926,-4.75 -5.75311,-4.36322 -6.02359,-5.00607 -8.56969,-20.36679 -1.18513,-7.15 -2.75868,-16.15 -3.49675,-20 -0.73808,-3.85 -2.10988,-11.275 -3.04845,-16.5 -0.93856,-5.225 -3.47841,-18.5 -5.6441,-29.5 -6.78513,-34.46315 -4.92948,-36.13816 40.61945,-36.6653 28.9212,-0.3347 28.9212,-0.3347 32.74879,9.1653 6.7722,16.80844 16.34857,37.37193 21.18924,45.5 1.63776,2.75 3.80838,6.575 4.82359,8.5 2.03886,3.86599 3.33183,6.01334 6.31718,10.49152 8.4703,12.70588 4.85301,11.72728 -30,-8.116 -23.90415,-13.60964 -23.97999,-13.62408 -23.07036,-4.39282 0.39408,3.99933 1.13363,8.36861 1.64344,9.70951 0.5098,1.34089 0.92692,4.81312 0.92692,7.71606 0,4.73137 0.51324,5.99348 4.95504,12.1849 10.55505,14.71266 7.64349,13.11359 33.79496,18.56065 12.17778,2.53649 11.4131,-0.37454 7.70877,29.34618 -1.37102,11 -3.17467,25.84206 -4.00812,32.98236 -1.83282,15.70203 -1.8684,15.74574 -8.19106,10.06112 z"
           id="path15" />
        <path
           id="path14"
           style="fill:#16223b;fill-opacity:1"
           d="m 588.0507,178.21727 c -0.87673,0.87673 2.01235,16.85655 4.42188,24.45898 1.28804,4.06398 2.34179,7.77611 2.34179,8.24805 0,2.49551 8.15511,17.25069 12.78321,23.12891 18.71335,23.76807 37.49193,31.97325 80.71679,35.26953 12.65943,0.96539 28.81534,3.37979 29.9043,4.46875 0.54768,0.54768 1.91437,0.99609 3.03711,0.99609 7.50286,0 16.94619,11.91178 15.85547,20 -1.81417,13.45302 -17.79583,11.95877 -17.79883,-1.66406 -0.002,-10.82526 -26.02216,-11.67401 -39.99805,-1.30469 -0.54999,0.40807 -4.825,2.69039 -9.5,5.07031 -4.67499,2.37993 -8.725,4.60099 -9,4.9375 -0.27499,0.3365 -2.24837,1.78647 -4.38476,3.22071 -6.30791,4.23473 -18.2112,25.06392 -30.11524,52.70117 -3.46885,8.05355 -4.22459,15.03906 -1.62695,15.03906 0.43106,0 1.81037,2.18967 3.06445,4.86719 2.52263,5.38591 2.43671,6.06822 -1.9707,15.63281 -3.36819,7.30938 -15.44051,35.38643 -17.73047,41.23633 -1.87821,4.79805 -3.45106,2.70403 13.76367,18.31055 15.04774,13.64196 12.82813,13.06792 23.81055,6.15625 21.37666,-13.45321 27.24551,-13.14005 13.39063,0.71484 -6.96397,6.96396 -8.85812,10.08203 -6.12891,10.08203 0.49802,0 3.49738,1.93175 6.66602,4.29297 13.51678,10.07248 19.68045,9.24966 30.58593,-4.08008 16.13017,-19.71587 24.98343,-20.1598 36.51758,-1.83594 2.56178,4.0698 17.1582,38.88821 17.1582,40.92969 0,0.35373 1.33338,3.55707 2.96485,7.11914 1.63146,3.56207 3.676,8.18619 4.54297,10.27539 7.27053,17.52021 24.008,49.98624 38.23047,74.15821 5.71913,9.72002 7.93184,10.71858 6.70703,3.02734 -1.05772,-6.64195 2.56536,-38.44426 5.98047,-52.49609 2.67205,-10.99448 10.87806,-30.22465 13.62109,-31.91993 0.60085,-0.37135 1.39948,-1.46424 1.77344,-2.42773 1.48767,-3.83293 16.61653,-20.43236 23.81054,-26.125 6.23833,-4.9364 13.75586,-10.08777 20.36914,-13.95898 4.125,-2.41465 7.859,-4.96947 8.29883,-5.67579 0.43983,-0.70632 1.25704,-1.2832 1.81641,-1.2832 0.55937,0 2.4922,-1.125 4.29492,-2.5 1.80272,-1.375 3.79802,-2.5 4.43359,-2.5 0.63559,0 1.15625,-0.34851 1.15625,-0.77344 0,-0.42492 1.68751,-1.65793 3.75,-2.74023 2.0625,-1.08231 3.97501,-2.22652 4.25,-2.54297 0.275,-0.31645 3.65001,-2.92098 7.5,-5.78711 11.34303,-8.4443 29.21553,-25.07046 30.33204,-28.2168 0.18334,-0.51663 0.97084,-0.93945 1.75,-0.93945 1.53882,0 1.95928,3.9796 0.58593,5.54883 -0.45728,0.5225 -1.40358,2.97617 -2.10351,5.45117 -1.36575,4.82939 -9.49886,20.84804 -11.42383,22.5 -0.64089,0.55 -1.66191,2.125 -2.26953,3.5 -1.75938,3.98138 -14.30769,19.06688 -20.75586,24.95313 -2.13664,1.95043 -6.74858,6.35937 -10.24805,9.79687 -3.49946,3.4375 -6.56461,6.25 -6.81054,6.25 -1.11713,0 -21.41153,21.11614 -25.32813,26.35352 -12.64101,16.90386 -12.51,16.60293 -36.73047,84.14648 -4.78113,13.33313 -11.63843,30.86797 -14.4707,37 -1.01613,2.2 -3.30249,7.375 -5.08008,11.5 -1.77758,4.125 -5.38064,11.91291 -8.00586,17.30664 -4.7731,9.80678 -4.77182,9.8068 -2.70508,16 2.74771,8.23379 2.75711,8.24455 14.26367,17.0332 5.5,4.20087 13.37501,10.38294 17.5,13.73829 4.125,3.35534 10.38764,8.42365 13.91797,11.26171 3.53035,2.83807 7.58036,6.14412 9,7.34766 21.21897,17.9888 15.87636,17.10741 57.08203,9.41992 14.57499,-2.71916 28.75001,-5.23496 31.5,-5.59179 19.48855,-2.52877 21.56268,2.1492 -16.31054,-36.76563 -13.79449,-14.17389 -17.89048,-15.7602 -24.39258,-9.44141 -7.07099,6.87165 -9.12492,6.92996 -23.29688,0.66407 -3.29999,-1.45904 -9.52707,-3.924 -13.83789,-5.47852 -15.1,-5.44516 -14.3282,-11.74211 3.54102,-28.85156 14.66535,-14.0418 13.22036,-13.46369 26.76172,-10.6875 5.2437,1.07505 22.13517,4.27025 37.53515,7.10156 15.39999,2.83132 28.60826,5.64465 29.35157,6.25195 2.35343,1.92282 23.14843,35.63839 23.14843,37.53125 0,0.54602 0.37424,1.14284 0.83204,1.32618 0.4578,0.18333 2.76039,3.70898 5.11718,7.83398 2.3568,4.125 5.29095,9.075 6.52149,11 1.23054,1.925 4.85594,7.77501 8.05469,13 8.58492,14.02307 8.32686,13.81649 10.93753,8.73633 10.1261,-19.70465 26.4543,-36.76743 43.3945,-45.3457 0.7468,-0.37817 5.9218,0.30153 11.5,1.50976 5.5782,1.20822 11.3299,2.44232 12.7812,2.74414 2.3415,0.48696 2.8893,1.46844 4.8692,8.70313 1.2272,4.48404 2.6007,9.50234 3.0527,11.15234 3.9371,14.3701 15.9053,45.78617 24.0078,63.02344 4.4685,9.50645 4.5657,9.33538 -13.5683,23.85742 -1.65,1.32136 -5.7937,4.70228 -9.2071,7.51172 -3.4135,2.80945 -6.451,5.10742 -6.75,5.10742 -0.2991,0 -1.376,0.7875 -2.3925,1.75 -4.3299,4.09987 -12.6745,10.95556 -16.5118,13.56445 -2.2765,1.54776 -5.0386,3.62898 -6.1386,4.625 -2.912,2.63673 -5.7686,3.95913 -17.4512,8.08399 -6.0592,2.13936 -10.9084,4.45545 -11.5098,5.49805 -0.5716,0.99102 -1.6453,2.51736 -2.3847,3.39062 -0.7395,0.87326 -4.6904,7.2129 -8.7813,14.08789 -9.07623,15.2533 -9.37903,15.75107 -11.87303,19.49219 -7.0979,10.64721 -7.77837,10.50781 51.54683,10.50781 34.3803,0 30.3802,2.44094 31.5411,-19.25 0.5495,-10.26739 3.4121,-20.22144 3.4121,-11.86523 0,0.48669 2.1622,1.59271 4.8047,2.45703 2.6425,0.86432 5.5028,1.83806 6.3574,2.16601 1.2123,0.46519 2.2628,-1.36868 4.7793,-8.34765 3.387,-9.39288 5.0491,-11.47804 12.2265,-15.33594 2.3794,-1.27895 4.5517,-2.56746 4.8282,-2.86328 0.5042,-0.53927 14.6975,-8.65006 25.0039,-14.28906 3.025,-1.65508 7.1769,-4.05734 9.2285,-5.33985 2.0515,-1.28252 4.414,-2.33203 5.25,-2.33203 0.8359,0 1.5215,-0.44095 1.5215,-0.98047 0,-0.53952 1.0666,-1.24876 2.3711,-1.57617 3.6566,-0.91775 5.225,-4.65845 10.2519,-24.44336 1.8866,-7.42499 3.5038,-14.4 3.5938,-15.5 0.1514,-1.85987 -7.8551,-15.89093 -16.3184,-28.59766 -28.1154,-42.21214 -35.0779,-60.41354 -14.8242,-38.75585 5.7333,6.13082 12.3298,12.99333 14.6582,15.25 2.3284,2.25666 4.24,4.42894 4.25,4.82812 0.01,0.39918 3.5176,4.22418 7.7969,8.5 4.2794,4.27582 13.6658,13.8504 20.8574,21.27539 7.1916,7.42499 19.3176,19.35001 26.9473,26.5 7.6296,7.14999 17.4826,16.45539 21.8945,20.67969 4.4119,4.22429 9.709,9.10835 11.7715,10.85351 5.0991,4.3145 4.3407,6.75812 -14.7246,47.4668 -2.3182,4.95 -5.7192,12.375 -7.5567,16.5 -4.2856,9.62103 -5.7647,10.93777 -17.2871,15.40234 -10.3477,4.00939 -10.7447,4.43072 -18.0859,19.09766 -1.1012,2.2 -2.3605,4.15066 -2.7989,4.33399 -0.4383,0.18333 -0.8005,0.85834 -0.8105,1.5 -0.01,0.64166 -2.9259,6.52412 -6.4844,13.07421 -3.5585,6.55009 -6.7297,12.73305 -7.0488,13.73829 -0.5531,1.74285 1.0357,1.83992 34.2324,2.10351 19.1473,0.15203 40.7145,0.38353 47.9258,0.51367 13.0818,0.23608 13.11,0.23126 12.7988,-2.01367 -0.1715,-1.2375 -1.3201,-8.65087 -2.5527,-16.47461 -1.2326,-7.82374 -1.9412,-14.52557 -1.5742,-14.89258 0.9006,-0.90055 5.5084,-0.8662 9.3886,0.0703 3.6793,0.88803 3.6418,1.02142 5.2657,-18.7168 0.8575,-10.42235 4.7781,-22.73633 7.2383,-22.73633 0.4535,0 0.8242,-0.82329 0.8242,-1.83008 0,-1.00679 1.1234,-4.04429 2.4961,-6.75 1.3727,-2.7057 2.5,-5.20616 2.5,-5.55664 0,-0.35048 2.7039,-6.2917 6.0039,-13.20117 3.3,-6.90947 6,-12.80284 6,-13.09766 0,-0.29482 2.5221,-5.83056 5.6054,-12.30078 8.103,-17.00412 7.8478,-15.97859 4.9161,-19.82226 -1.3876,-1.81928 -2.5215,-3.55787 -2.5215,-3.86328 0,-0.30541 -0.6425,-1.34762 -1.4278,-2.31641 -18.1001,-22.3294 -20.944,-28.51767 -20.1035,-43.76172 0.273,-4.94999 0.7236,-13.275 1,-18.5 0.8777,-16.59449 2.6243,-39.43687 3.1543,-41.25 0.7431,-2.54198 1.7177,-2.24934 9.5528,2.86524 29.8721,19.50004 62.031,22.56186 89.541,8.52734 48.0628,-24.5198 58.7628,-86.53581 23.8984,-138.52539 -2.5384,-3.78533 -4.6152,-6.97779 -4.6152,-7.09375 0,-3.21422 -29.5506,-30.6787 -41,-38.10547 -2.475,-1.60544 -4.6507,-3.25547 -4.834,-3.66797 -0.1833,-0.4125 -0.6821,-0.75 -1.1074,-0.75 -0.4252,0 -4.6819,-2.25 -9.461,-5 -4.779,-2.75 -8.934,-5 -9.2324,-5 -0.2984,0 -3.4281,-1.33627 -6.9551,-2.96875 -23.3169,-10.7924 -60.1951,-15.12486 -81.9101,-9.62305 -13.585,3.44197 -40.1078,-1.37227 -28.6328,-5.19726 0.623,-0.20766 1.1328,-1.01576 1.1328,-1.79492 0,-0.77917 0.4115,-1.41602 0.916,-1.41602 5.9722,0 4.6351,-15.46815 -2.5508,-29.5 -11.2278,-21.92459 -12.0662,-33.6465 -4.0312,-56.32226 1.4269,-4.02674 2.2716,-7.17404 1.8789,-6.99415 -4.1725,1.91127 -12.2342,6.54222 -15.4707,8.88672 -2.2241,1.61113 -4.4557,2.92969 -4.959,2.92969 -1.2331,0 -11.7832,10.6115 -11.7832,11.85156 0,0.54004 -0.4001,1.13112 -0.8887,1.31446 -1.6643,0.62435 -10.0587,13.76875 -12.4922,19.56054 -21.7078,51.6648 18.102,96.65961 77.5762,87.67774 72.8584,-11.00316 149.4511,44.46983 146.4883,106.0957 -2.1019,43.71829 -52.5584,66.62043 -83.4121,37.86133 -1.5251,-1.42151 -3.6928,-3.32131 -4.8184,-4.22266 -3.3696,-2.69828 -14.4531,-16.34308 -14.4531,-17.79297 0,-0.74024 -0.3538,-1.3457 -0.7852,-1.3457 -0.4315,0 -1.6448,-1.4625 -2.6972,-3.25 -5.0035,-8.49769 -18.3324,-25.77696 -22.879,-29.66016 -1.0236,-0.87423 -4.0514,-3.72734 -6.7285,-6.33984 -2.6771,-2.6125 -5.0513,-4.75 -5.2754,-4.75 -0.2241,0 -3.0462,-1.75812 -6.2714,-3.90625 -13.8386,-9.21724 -23.1677,-13.24086 -57.17,-24.6582 -44.2856,-14.87034 -68.033,-30.85097 -104.6191,-70.40625 -16.8632,-18.2317 -45.5742,-57.04203 -45.5742,-61.60352 0,-0.78462 -0.4469,-1.42578 -0.9922,-1.42578 -0.5453,0 -2.3656,-2.3625 -4.0449,-5.25 -2.7207,-4.67802 -9.7338,-16.30496 -11.7168,-19.42578 -0.411,-0.64674 -2.7711,-4.36345 -5.2461,-8.25977 -24.9403,-39.26286 -42.30441,-63.3229 -59.69338,-82.71093 -4.01857,-4.48056 -7.30665,-8.42033 -7.30665,-8.75586 0,-2.04773 -28.42937,-27.8917 -45.00781,-40.91407 -24.39902,-19.16545 -57.15993,-30.67864 -87.30078,-30.68164 -14.33808,-0.002 -36.49762,3.03347 -38.19922,5.23243 -0.71618,0.92551 3.39213,14.24766 4.56446,14.80078 8.64472,4.07868 14.91641,9.06627 14.9746,11.91015 0.0175,0.85461 0.69251,2.42848 1.5,3.4961 5.8166,7.69022 -4.84763,46.62172 -14.2207,51.91601 -1.24845,0.70518 -0.82654,1.59234 2.37305,5 18.42013,19.61805 23.72933,47.8534 14.64648,77.89258 -3.79232,12.54216 -4.9372,11.5241 -5.61914,-5 -0.79714,-19.31529 -7.25591,-38.4524 -16.71094,-49.50781 -5.0845,-5.94513 -8.607,-9.43448 -12.75,-12.63086 -5.32777,-4.11044 -5.31239,-4.3962 0.71094,-11.87109 12.35921,-15.33763 18.16692,-28.91135 18.82031,-43.99024 0.53482,-12.34247 1.22302,-12.24334 -10.40234,-1.5 -5.20759,4.8125 -10.01074,8.93042 -10.67383,9.15039 -0.66309,0.21997 -1.43008,0.72159 -1.70508,1.11524 -1.08112,1.54756 -9.27518,5.09341 -10.59765,4.58593 -1.4973,-0.57457 -1.92794,-3.21202 -0.61524,-3.76757 5.15928,-2.18346 14.21289,-23.13072 14.21289,-32.88477 0,-35.74956 -22.32922,-48.6615 -86.5,-50.01758 -38.27219,-0.80879 -41.25207,-1.09589 -53.03125,-5.11523 -16.62766,-5.67376 -44.46875,-29.32478 -44.46875,-37.77539 0,-0.57312 -0.37783,-1.04102 -0.83789,-1.04102 -0.46006,0 -2.09548,-2.48893 -3.63476,-5.53125 -1.53927,-3.04233 -3.01984,-5.31025 -3.29102,-5.03906 z m 122.74219,157.88867 c 3.38409,-0.0599 3.34489,1.67968 -1.36523,3.92578 -2.83199,1.35049 -3.84074,2.81173 -6.17579,8.93555 -5.49023,14.39843 -5.94303,14.93015 -14.4375,16.97851 -12.38902,2.98751 -12.80277,2.28819 -7.4707,-12.67773 4.20722,-11.80867 2.66832,-10.79522 24.9707,-16.45508 1.84221,-0.46751 3.35049,-0.68707 4.47852,-0.70703 z" />
      </g>
      <g
         id="g16"
         inkscape:label="Candles"
         style="fill:#066072;fill-opacity:1"
         transform="translate(-441.2675,-133.98094)">
        <path
           style="fill:#066072;fill-opacity:1"
           d="m 1054.3136,1111.068 c -8.1582,-0.8738 -7.5,6.9626 -7.5,-89.2807 0,-85.12853 0.013,-85.70223 2.0509,-87.54607 2.7804,-2.51618 61.3653,-2.3786 63.9491,0.15017 2.5162,2.46248 2.2402,172.5843 -0.284,175.1104 -1.7558,1.7572 -45.4554,2.9328 -58.216,1.5662 z"
           id="path12" />
        <path
           style="fill:#066072;fill-opacity:1"
           d="m 972.56327,1111.093 c -5.41071,-0.8624 -5.24962,1.9701 -5.24962,-92.3055 0,-105.74117 -5.25313,-91.49999 33.75155,-91.49999 35.6583,0 34.8247,-0.23219 33.6228,9.36542 -0.3881,3.09902 -0.7436,42.78607 -0.79,88.19347 -0.071,69.594 -0.3071,82.8637 -1.5026,84.5 -1.3757,1.883 -50.06006,3.3041 -59.83213,1.7466 z"
           id="path11" />
        <path
           style="fill:#066072;fill-opacity:1"
           d="m 886.06365,1110.1398 c -3.25,-1.6021 -3.25,-1.6021 -3.29986,-25.7272 -0.41341,-200.01475 -0.30722,-284.96191 0.36113,-288.87509 0.81128,-4.75 0.81128,-4.75 31.88271,-4.75 36.54453,0 34.75447,-0.55961 34.87591,10.90301 1.28958,121.72731 -0.26086,305.82028 -2.59271,307.84698 -3.44295,2.9925 -55.34294,3.5031 -61.22718,0.6023 z"
           id="path10" />
        <path
           style="fill:#066072;fill-opacity:1"
           d="m 723.12199,1110.5931 c -3.69588,-1.786 -3.6439,0.7286 -3.87494,-187.44685 -0.26394,-214.96585 -2.88632,-190.05655 19.89889,-189.01417 7.79224,0.35649 20.91771,0.66394 29.16771,0.68324 14.81923,0.0347 15.02188,0.0651 16.81545,2.52853 1.54127,2.11688 2.87153,283.17845 1.73556,366.69365 -0.10521,7.7351 -0.20777,7.7591 -32.80101,7.6824 -18.0486,-0.043 -29.56579,-0.4619 -30.94166,-1.1268 z"
           id="path9" />
        <path
           style="fill:#066072;fill-opacity:1"
           d="m 1365.814,1111.6981 c -2e-4,-0.3243 -1.1254,-1.1021 -2.5004,-1.7286 -4.4138,-2.0111 -3.8357,-156.99164 0.5986,-160.46196 2.6128,-2.04482 3.7493,-2.3162 7.25,-1.73118 6.8253,1.14063 45.3557,1.29887 46.0415,0.18909 0.6614,-1.07005 3.8266,-0.62667 7.2498,1.01556 3.8499,1.84695 5.5923,153.75099 1.8294,159.49389 -2.0158,3.0764 -60.4673,6.192 -60.4689,3.2232 z"
           id="path8" />
        <path
           style="fill:#066072;fill-opacity:1"
           d="m 1313.8136,1111.8208 c -19.1226,-0.3999 -26.1877,-0.886 -28.25,-1.9438 -2.5603,-1.3132 -4.0653,-57.757 -3.13,-117.38636 0.1429,-9.11062 0.3583,-9.17024 34.1945,-9.46769 37.4715,-0.3294 32.6813,-9.9221 32.2912,64.66525 -0.3493,66.77 -0.2122,65.5529 -7.3102,64.8826 -1.2625,-0.1193 -13.7705,-0.4568 -27.7955,-0.75 z"
           id="path7" />
        <path
           style="fill:#066072;fill-opacity:1"
           d="m 1236.8136,1111.8208 c -19.1226,-0.3999 -26.1877,-0.886 -28.25,-1.9438 -2.5603,-1.3132 -4.0653,-57.757 -3.13,-117.38636 0.1429,-9.11062 0.3583,-9.17024 34.1945,-9.46769 37.4715,-0.3294 32.6813,-9.9221 32.2912,64.66525 -0.3493,66.77 -0.2122,65.5529 -7.3102,64.8826 -1.2625,-0.1193 -13.7705,-0.4568 -27.7955,-0.75 z"
           id="path6" />
        <path
           style="fill:#066072;fill-opacity:1"
           d="m 1139.3136,1111.7388 c -13.8624,0.1252 -12.4652,5.4317 -12.7197,-59.4418 -0.1209,-30.8052 -0.193,-57.7181 -0.1603,-59.8064 0.1429,-9.11062 0.3583,-9.17024 34.1945,-9.46769 37.4715,-0.3294 32.6813,-9.9221 32.2912,64.66519 -0.3848,73.5452 5.1144,63.5205 -53.6057,64.0507 z"
           id="path5" />
        <path
           style="fill:#066072;fill-opacity:1"
           d="m 806.81257,1111.0872 c 6e-4,-0.6602 -0.69312,-1.5888 -1.54158,-2.0636 -1.98802,-1.1126 -3.03344,-282.39185 -1.07871,-290.23609 1.22877,-4.931 54.49917,-8.78958 63.34529,-4.58835 4.82578,2.29188 5.23315,293.90484 0.41387,296.26134 -2.88875,1.4124 -61.14011,2.0096 -61.13887,0.6267 z"
           id="path4" />
        <path
           style="fill:#066072;fill-opacity:1"
           d="m 625.06365,1110.5033 c -2.9967,-3.0448 -3.65705,-354.96188 -0.66821,-356.1088 2.06558,-0.79264 79.77084,-0.79264 81.83642,0 3.16614,1.21496 2.28006,352.0782 -0.89848,355.7742 -2.2108,2.5706 -2.91259,2.8116 -6.51201,2.236 -4.80649,-0.7686 -60.23162,-0.8806 -66.87513,-0.1351 -3.90546,0.4382 -4.98575,0.161 -6.88259,-1.7663 z"
           id="path3" />
        <path
           style="fill:#066072;fill-opacity:1"
           d="m 548.81339,1111.5566 c 1.4e-4,-0.4021 -1.12474,-1.0133 -2.49974,-1.3585 -2.29721,-0.5765 -2.49994,-1.085 -2.49931,-6.269 0.038,-311.02099 -0.3903,-474.84657 -1.24425,-475.90266 -1.43185,-1.77078 1.81198,-9.9149 4.58063,-11.50034 1.5829,-0.90644 9.92487,-1.23859 31.10715,-1.23859 37.05513,0 32.90709,-6.34655 32.56545,49.82547 -0.14442,23.74599 -0.31818,133.09817 -0.38613,243.00485 -0.1228,198.63157 -0.13554,199.83867 -2.12354,201.21587 -1.1,0.7621 -2.45,1.7384 -3,2.1697 -1.26334,0.9906 -56.50061,1.0426 -56.50026,0.053 z"
           id="path2" />
        <path
           style="fill:#066072;fill-opacity:1"
           d="m 496.81365,1111.7875 c -19.77051,-0.3595 -28.13241,-0.8612 -29.75,-1.7852 -4.34916,-2.4842 -3.35573,-738.5593 1,-740.93911 5.63718,-3.07995 60.35052,-2.815 62.39294,0.30213 1.64592,2.51199 1.58373,735.13248 -0.0627,738.70918 -1.79293,3.8949 -4.86888,4.235 -33.58023,3.713 z"
           id="path1" />
      </g>
    </g>
  </g>
</svg>
