<?xml version="1.0" encoding="UTF-8" standalone="no"?>
<svg
   width="137"
   height="121"
   viewBox="0 0 137 121"
   fill="none"
   version="1.1"
   id="svg35"
   sodipodi:docname="polygon-logo.svg"
   inkscape:version="1.1.2 (0a00cf5339, 2022-02-04)"
   xmlns:inkscape="http://www.inkscape.org/namespaces/inkscape"
   xmlns:sodipodi="http://sodipodi.sourceforge.net/DTD/sodipodi-0.dtd"
   xmlns="http://www.w3.org/2000/svg"
   xmlns:svg="http://www.w3.org/2000/svg">
  <sodipodi:namedview
     id="namedview37"
     pagecolor="#ffffff"
     bordercolor="#666666"
     borderopacity="1.0"
     inkscape:pageshadow="2"
     inkscape:pageopacity="0.0"
     inkscape:pagecheckerboard="0"
     showgrid="false"
     fit-margin-top="0"
     fit-margin-left="0"
     fit-margin-right="0"
     fit-margin-bottom="0"
     inkscape:zoom="0.84796438"
     inkscape:cx="435.74944"
     inkscape:cy="44.223556"
     inkscape:window-width="1920"
     inkscape:window-height="962"
     inkscape:window-x="0"
     inkscape:window-y="0"
     inkscape:window-maximized="1"
     inkscape:current-layer="svg35" />
  <path
     d="M 101.717,85.2154 134.212,66.5068 C 135.931,65.5161 137,63.6714 137,61.6902 V 24.2671 c 0,-1.9783 -1.069,-3.826 -2.788,-4.8166 L 101.717,0.74188202 c -1.7184,-0.990628 -3.8565,-0.987723 -5.5752,0 L 63.6469,19.4505 c -1.7187,0.9906 -2.7878,2.8354 -2.7878,4.8166 V 91.1388 L 38.0734,104.255 15.2876,91.1388 V 64.8974 L 38.0734,51.781 53.1046,60.4323 V 42.8305 L 40.8611,35.7828 c -0.8448,-0.4852 -1.809,-0.7408 -2.7877,-0.7408 -0.9788,0 -1.943,0.2556 -2.7878,0.7408 L 2.78777,54.4943 C 1.06908,55.485 0,57.3297 0,59.3109 v 37.4202 c 0,1.9783 1.06908,3.8259 2.78777,4.8169 l 32.49493,18.711 c 1.7187,0.988 3.8539,0.988 5.5755,0 l 32.4949,-18.708 c 1.7187,-0.991 2.7878,-2.8387 2.7878,-4.817 V 29.8623 L 76.5516,29.627 98.9266,16.7459 121.712,29.8652 V 56.1037 L 98.9266,69.223 83.9187,60.5833 v 17.6018 l 12.2202,7.039 c 1.7187,0.9877 3.8568,0.9877 5.5751,0 z"
     fill="url(#paint0_linear_4864_1934)"
     id="path24"
     inkscape:label="polygon"
     style="fill:url(#paint0_linear_4864_1934)" />
  <defs
     id="defs33">
    <linearGradient
       id="paint0_linear_4864_1934"
       x1="11.6463"
       y1="101.841"
       x2="129.16701"
       y2="15.9136"
       gradientUnits="userSpaceOnUse">
      <stop
         stop-color="#A726C1"
         id="stop26" />
      <stop
         offset="0.88"
         stop-color="#803BDF"
         id="stop28" />
      <stop
         offset="1"
         stop-color="#7B3FE4"
         id="stop30" />
    </linearGradient>
  </defs>
</svg>
